<svg xmlns="http://www.w3.org/2000/svg" width="1024" height="1024" viewBox="0 0 1024 1024" role="img" aria-label="Lemoncrow icon">
  <defs>
    <linearGradient id="bg" x1="0" y1="0" x2="1" y2="1">
      <stop offset="0" stop-color="#1e1f23" />
      <stop offset="0.52" stop-color="#16171b" />
      <stop offset="1" stop-color="#111216" />
    </linearGradient>
  </defs>
  <rect x="12" y="12" width="999" height="999" rx="175" ry="175" fill="url(#bg)" />
  <path d="M 600.00,401.00 C 598.71,402.98 592.02,415.15 591.00,420.00 C 589.98,424.85 590.21,439.74 591.00,444.00 C 591.79,448.26 595.34,454.65 598.00,458.00 C 600.66,461.35 610.65,470.88 614.00,473.00 C 617.35,475.12 623.57,476.65 628.00,477.00 C 632.43,477.35 648.07,476.79 652.00,476.00 C 655.93,475.21 660.72,471.56 663.00,470.00 C 665.28,468.44 670.40,463.77 671.00,463.00 C 671.60,462.23 669.33,461.75 670.00,461.00 C 670.67,460.25 678.12,455.08 679.00,454.00 C 679.88,452.92 679.51,450.92 679.00,450.00 C 678.49,449.08 675.88,446.30 674.00,445.00 C 672.12,443.70 664.68,439.52 663.00,439.00 C 661.32,438.48 659.01,439.09 658.00,440.00 C 656.99,440.91 654.46,446.54 653.00,448.00 C 651.54,449.46 647.51,452.45 645.00,453.00 C 642.49,453.55 632.66,453.35 630.00,453.00 C 627.34,452.65 623.70,451.13 622.00,450.00 C 620.30,448.87 616.17,444.52 615.00,443.00 C 613.83,441.48 612.34,439.47 612.00,437.00 C 611.66,434.53 611.58,423.22 612.00,421.00 C 612.42,418.78 615.58,417.16 616.00,416.00 C 616.42,414.84 616.82,411.43 616.00,410.00 C 615.18,408.57 609.40,403.17 608.00,402.00 C 606.60,400.83 604.84,400.10 604.00,400.00 C 603.16,399.90 601.29,399.02 600.00,401.00 Z M 438.00,215.00 C 435.49,216.47 433.50,226.01 436.00,230.00 C 438.50,233.99 435.75,238.79 463.00,255.00 C 490.25,271.21 622.20,341.15 658.00,362.00 C 693.80,382.85 730.79,407.90 748.00,421.00 C 765.21,434.10 788.54,457.65 796.00,467.00 C 803.46,476.35 809.39,494.37 811.00,500.00 C 812.61,505.63 811.66,510.92 810.00,516.00 C 808.34,521.08 805.29,532.91 797.00,543.00 C 788.71,553.09 760.12,584.25 741.00,600.00 C 721.88,615.75 680.30,645.01 644.00,669.00 C 607.70,692.99 477.19,773.29 452.00,791.00 C 426.81,808.71 433.58,814.24 432.00,818.00 C 430.42,821.76 434.05,827.64 436.00,829.00 C 437.95,830.36 443.63,833.40 452.00,832.00 C 460.37,830.60 492.58,823.73 508.00,817.00 C 523.42,810.27 527.76,814.81 578.00,777.00 C 628.24,739.19 894.87,526.55 908.00,516.00 C 921.13,505.45 895.08,524.22 894.00,523.00 C 892.92,521.78 891.43,500.11 892.00,498.00 C 892.57,495.89 900.68,497.45 901.00,497.00 C 901.32,496.55 934.50,518.95 897.00,491.00 C 859.50,463.05 632.22,295.15 587.00,263.00 C 541.78,230.85 548.30,240.40 537.00,235.00 C 525.70,229.60 506.04,222.76 497.00,220.00 C 487.96,217.24 472.16,213.61 465.00,213.00 C 457.84,212.39 440.51,213.53 438.00,215.00 Z" fill="#f7f7f7" fill-rule="evenodd" stroke-linejoin="round" stroke-linecap="round" shape-rendering="geometricPrecision" />
  <path d="M 894 497 C 902 500 908 506 910 513 C 907 519 901 523 894 523 C 892 517 891 504 894 497 Z" fill="url(#bg)" shape-rendering="geometricPrecision" /><path d="M 195.00,167.00 C 191.99,168.67 190.40,171.91 190.00,173.00 C 189.60,174.09 189.11,175.34 191.00,178.00 C 192.89,180.66 199.85,190.93 207.00,197.00 C 214.15,203.07 241.70,223.52 251.00,229.00 C 260.30,234.48 278.28,240.84 285.00,243.00 C 291.72,245.16 300.87,246.88 307.00,247.00 C 313.13,247.12 327.56,247.03 337.00,244.00 C 346.44,240.97 381.46,223.25 388.00,221.00 C 394.54,218.75 396.75,222.13 398.00,223.00 C 399.25,223.87 400.77,226.51 401.00,230.00 C 401.23,233.49 400.99,250.05 400.00,254.00 C 399.01,257.95 396.72,263.59 392.00,266.00 C 387.28,268.41 362.11,272.78 355.00,277.00 C 347.89,281.22 337.90,297.90 328.00,304.00 C 318.10,310.10 282.62,321.19 269.00,330.00 C 255.38,338.81 221.90,368.86 212.00,379.00 C 202.10,389.14 191.36,406.48 186.00,415.00 C 180.64,423.52 172.34,437.56 168.00,449.00 C 163.66,460.44 152.65,497.12 150.00,510.00 C 147.35,522.88 146.37,544.92 146.00,556.00 C 145.63,567.08 146.15,591.77 147.00,601.00 C 147.85,610.23 150.57,623.61 153.00,632.00 C 155.43,640.39 161.06,658.12 167.00,670.00 C 172.94,681.88 191.94,717.10 202.00,730.00 C 212.06,742.90 244.68,769.62 252.00,779.00 C 259.32,788.38 262.36,806.31 266.00,812.00 C 269.64,817.69 279.91,826.85 284.00,829.00 C 288.09,831.15 298.37,832.99 304.00,832.00 C 309.63,831.01 323.32,826.08 335.00,820.00 C 346.68,813.92 385.51,791.25 400.00,782.00 C 414.49,772.75 444.14,752.17 454.00,744.00 C 463.86,735.83 474.77,723.88 482.00,714.00 C 489.23,704.12 507.43,674.78 514.00,662.00 C 520.57,649.22 532.03,622.35 536.00,609.00 C 539.97,595.65 545.80,563.74 547.00,551.00 C 548.20,538.26 547.45,514.68 546.00,503.00 C 544.55,491.32 539.61,467.96 535.00,454.00 C 530.39,440.04 517.39,402.60 508.00,388.00 C 498.61,373.40 461.74,338.74 454.00,328.00 C 446.26,317.26 444.76,299.37 441.00,295.00 C 437.24,290.63 420.48,287.02 417.00,285.00 C 413.52,282.98 410.73,280.13 410.00,277.00 C 409.27,273.87 408.22,264.37 410.00,255.00 C 411.78,245.63 423.67,205.66 425.00,198.00 C 426.33,190.34 423.15,186.43 422.00,186.00 C 420.85,185.57 410.54,189.69 409.00,192.00 C 407.46,194.31 407.16,207.37 406.00,210.00 C 404.84,212.63 402.17,220.22 398.00,217.00 C 393.83,213.78 362.07,176.35 353.00,169.00 C 343.93,161.65 326.38,155.34 319.00,153.00 C 311.62,150.66 297.04,149.36 290.00,149.00 C 282.96,148.64 269.89,148.90 261.00,150.00 C 252.11,151.10 224.93,155.96 217.00,158.00 C 209.07,160.04 198.01,165.33 195.00,167.00 Z M 298.00,797.00 C 299.48,796.51 307.63,796.61 309.00,797.00 C 310.37,797.39 311.79,799.77 312.00,801.00 C 312.21,802.23 311.83,807.55 311.00,809.00 C 310.17,810.45 304.94,814.37 304.00,815.00 C 303.06,815.63 303.02,815.82 302.00,815.00 C 300.98,814.18 294.82,808.33 294.00,807.00 C 293.18,805.67 293.58,803.06 294.00,802.00 C 294.42,800.94 296.52,797.49 298.00,797.00 Z M 323.00,778.00 C 323.31,776.57 325.03,775.43 326.00,775.00 C 326.97,774.57 330.52,773.31 332.00,774.00 C 333.48,774.69 340.10,781.00 341.00,782.00 C 341.90,783.00 341.73,782.96 341.00,784.00 C 340.27,785.04 335.10,791.01 334.00,792.00 C 332.90,792.99 331.88,793.00 331.00,793.00 C 330.12,793.00 326.87,792.43 326.00,792.00 C 325.13,791.57 323.31,790.43 323.00,789.00 C 322.69,787.57 322.69,779.43 323.00,778.00 Z M 273.00,777.00 C 273.53,775.73 275.97,773.68 277.00,773.00 C 278.03,772.32 280.83,770.46 282.00,771.00 C 283.17,771.54 289.31,777.43 290.00,779.00 C 290.69,780.57 289.40,786.00 289.00,787.00 C 288.60,788.00 287.41,788.78 286.00,789.00 C 284.59,789.22 277.35,789.11 276.00,789.00 C 274.65,788.89 274.44,788.44 274.00,788.00 C 273.56,787.56 272.10,786.15 272.00,785.00 C 271.90,783.85 272.47,778.27 273.00,777.00 Z M 356.00,752.00 C 357.45,751.55 362.41,753.98 364.00,755.00 C 365.59,756.02 369.39,759.77 370.00,761.00 C 370.61,762.23 370.12,765.95 370.00,767.00 C 369.88,768.05 369.45,769.33 369.00,770.00 C 368.55,770.67 366.87,772.57 366.00,773.00 C 365.13,773.43 361.95,774.11 361.00,774.00 C 360.05,773.89 358.49,773.38 357.00,772.00 C 355.51,770.62 348.93,763.25 348.00,762.00 C 347.07,760.75 347.18,761.02 348.00,760.00 C 348.82,758.98 354.55,752.45 356.00,752.00 Z M 299.00,754.00 C 299.91,752.98 303.58,749.40 305.00,749.00 C 306.42,748.60 311.94,749.68 313.00,750.00 C 314.06,750.32 314.68,751.24 315.00,752.00 C 315.32,752.76 315.88,756.04 316.00,757.00 C 316.12,757.96 316.34,758.99 316.00,760.00 C 315.66,761.01 313.91,764.87 313.00,766.00 C 312.09,767.13 308.84,769.58 308.00,770.00 C 307.16,770.42 305.65,770.22 305.00,770.00 C 304.35,769.78 302.94,768.94 302.00,768.00 C 301.06,767.06 297.52,763.05 297.00,762.00 C 296.48,760.95 296.78,758.90 297.00,758.00 C 297.22,757.10 298.09,755.02 299.00,754.00 Z M 257.00,746.00 C 258.21,745.12 260.16,744.90 261.00,745.00 C 261.84,745.10 263.95,746.18 265.00,747.00 C 266.05,747.82 269.36,750.72 270.00,752.00 C 270.64,753.28 271.20,757.88 271.00,759.00 C 270.80,760.12 269.31,762.50 268.00,763.00 C 266.69,763.50 259.82,764.61 258.00,764.00 C 256.18,763.39 251.03,758.03 250.00,757.00 C 248.97,755.97 249.00,755.39 249.00,755.00 C 249.00,754.61 249.07,754.05 250.00,753.00 C 250.93,751.95 255.79,746.88 257.00,746.00 Z M 384.00,746.00 C 384.75,744.71 388.99,740.79 390.00,740.00 C 391.01,739.21 391.90,738.26 393.00,739.00 C 394.10,739.74 401.92,746.57 402.00,748.00 C 402.08,749.43 395.30,755.92 394.00,757.00 C 392.70,758.08 390.76,758.00 390.00,758.00 C 389.24,758.00 387.67,757.45 387.00,757.00 C 386.33,756.55 384.47,754.58 384.00,754.00 C 383.53,753.42 383.00,752.86 383.00,752.00 C 383.00,751.14 383.25,747.29 384.00,746.00 Z M 323.00,734.00 C 324.15,732.85 330.61,726.08 332.00,726.00 C 333.39,725.92 339.06,731.54 340.00,733.00 C 340.94,734.46 341.20,738.88 341.00,740.00 C 340.80,741.12 339.02,743.49 338.00,744.00 C 336.98,744.51 332.40,745.50 331.00,745.00 C 329.60,744.50 325.06,740.06 324.00,739.00 C 322.94,737.94 322.09,736.47 322.00,736.00 C 321.91,735.53 321.85,735.15 323.00,734.00 Z M 409.00,727.00 C 409.09,726.17 411.03,724.43 412.00,724.00 C 412.97,723.57 417.03,722.71 418.00,723.00 C 418.97,723.29 421.46,726.03 422.00,727.00 C 422.54,727.97 423.27,731.27 423.00,732.00 C 422.73,732.73 420.07,734.68 419.00,735.00 C 417.93,735.32 413.82,735.20 413.00,735.00 C 412.18,734.80 411.45,733.90 411.00,733.00 C 410.55,732.10 408.91,727.83 409.00,727.00 Z M 278.00,724.00 C 278.78,723.61 282.39,724.10 283.00,724.00 C 283.61,723.90 283.84,723.00 284.00,723.00 C 284.16,723.00 284.39,723.90 285.00,724.00 C 285.61,724.10 289.22,723.61 290.00,724.00 C 290.78,724.39 292.68,726.93 293.00,728.00 C 293.32,729.07 293.82,732.57 293.00,734.00 C 292.18,735.43 286.01,741.36 285.00,742.00 C 283.99,742.64 283.12,741.90 282.00,741.00 C 280.88,740.10 275.71,735.33 275.00,734.00 C 274.29,732.67 274.68,729.07 275.00,728.00 C 275.32,726.93 277.22,724.39 278.00,724.00 Z M 228.00,720.00 C 228.32,718.94 229.29,718.20 230.00,718.00 C 230.71,717.80 233.63,717.66 235.00,718.00 C 236.37,718.34 240.85,720.31 242.00,721.00 C 243.15,721.69 244.69,722.88 245.00,724.00 C 245.31,725.12 245.39,730.93 245.00,732.00 C 244.61,733.07 242.49,734.68 241.00,735.00 C 239.51,735.32 232.33,735.31 231.00,735.00 C 229.67,734.69 228.44,732.77 228.00,732.00 C 227.56,731.23 227.00,729.38 227.00,728.00 C 227.00,726.62 227.68,721.06 228.00,720.00 Z M 358.00,721.00 C 358.49,720.21 361.94,717.42 363.00,717.00 C 364.06,716.58 366.67,716.18 368.00,717.00 C 369.33,717.82 375.18,723.98 376.00,725.00 C 376.82,726.02 376.32,726.36 376.00,727.00 C 375.68,727.64 374.02,730.49 373.00,731.00 C 371.98,731.51 367.50,732.60 366.00,732.00 C 364.50,731.40 358.80,726.10 358.00,725.00 C 357.20,723.90 357.51,721.79 358.00,721.00 Z M 305.00,701.00 C 305.70,700.40 306.36,700.68 307.00,701.00 C 307.64,701.32 309.61,702.26 311.00,704.00 C 312.39,705.74 318.31,714.53 319.00,716.00 C 319.69,717.47 318.45,718.33 318.00,719.00 C 317.55,719.67 315.87,721.57 315.00,722.00 C 314.13,722.43 310.95,723.11 310.00,723.00 C 309.05,722.89 307.05,721.82 306.00,721.00 C 304.95,720.18 301.63,717.48 301.00,716.00 C 300.37,714.52 299.59,708.52 300.00,707.00 C 300.41,705.48 304.30,701.60 305.00,701.00 Z M 254.00,698.00 C 255.02,697.59 258.74,697.48 260.00,698.00 C 261.26,698.52 265.09,701.98 266.00,703.00 C 266.91,704.02 267.78,706.10 268.00,707.00 C 268.22,707.90 268.32,710.15 268.00,711.00 C 267.68,711.85 266.12,714.49 265.00,715.00 C 263.88,715.51 258.47,716.59 257.00,716.00 C 255.53,715.41 250.90,710.12 250.00,709.00 C 249.10,707.88 249.00,706.76 249.00,706.00 C 249.00,705.24 249.45,702.88 250.00,702.00 C 250.55,701.12 252.98,698.41 254.00,698.00 Z M 202.00,696.00 C 202.41,695.29 204.57,692.41 206.00,692.00 C 207.43,691.59 214.65,691.89 216.00,692.00 C 217.35,692.11 217.56,692.56 218.00,693.00 C 218.44,693.44 219.78,694.70 220.00,696.00 C 220.22,697.30 220.11,703.77 220.00,705.00 C 219.89,706.23 219.65,706.46 219.00,707.00 C 218.35,707.54 214.86,709.90 214.00,710.00 C 213.14,710.10 211.38,709.26 210.00,708.00 C 208.62,706.74 202.83,700.25 202.00,699.00 C 201.17,697.75 201.59,696.71 202.00,696.00 Z M 333.00,689.00 C 333.42,687.83 335.18,686.31 336.00,686.00 C 336.82,685.69 339.90,685.30 341.00,686.00 C 342.10,686.70 346.37,691.95 347.00,693.00 C 347.63,694.05 347.90,694.90 347.00,696.00 C 346.10,697.10 339.16,703.67 338.00,704.00 C 336.84,704.33 333.65,700.76 333.00,700.00 C 332.35,699.24 332.00,698.24 332.00,697.00 C 332.00,695.76 332.58,690.17 333.00,689.00 Z M 281.00,680.00 C 282.08,679.41 287.82,678.71 289.00,679.00 C 290.18,679.29 292.59,681.88 293.00,683.00 C 293.41,684.12 293.31,688.98 293.00,690.00 C 292.69,691.02 291.07,692.57 290.00,693.00 C 288.93,693.43 284.12,694.20 283.00,694.00 C 281.88,693.80 279.51,691.93 279.00,691.00 C 278.49,690.07 277.79,686.15 278.00,685.00 C 278.21,683.85 279.92,680.59 281.00,680.00 Z M 228.00,673.00 C 228.52,672.17 231.15,670.32 232.00,670.00 C 232.85,669.68 235.00,669.30 236.00,670.00 C 237.00,670.70 241.51,675.82 242.00,677.00 C 242.49,678.18 241.41,681.29 241.00,682.00 C 240.59,682.71 239.08,683.78 238.00,684.00 C 236.92,684.22 232.02,684.31 231.00,684.00 C 229.98,683.69 228.45,681.67 228.00,681.00 C 227.55,680.33 227.00,678.88 227.00,678.00 C 227.00,677.12 227.48,673.83 228.00,673.00 Z M 186.00,668.00 C 186.28,667.36 189.21,664.56 190.00,664.00 C 190.79,663.44 192.36,662.72 193.00,663.00 C 193.64,663.28 196.59,666.18 197.00,667.00 C 197.41,667.82 197.39,670.32 197.00,671.00 C 196.61,671.68 193.75,673.68 193.00,674.00 C 192.25,674.32 190.61,674.31 190.00,674.00 C 189.39,673.69 187.45,671.67 187.00,671.00 C 186.55,670.33 185.72,668.64 186.00,668.00 Z M 237.00,642.00 C 237.19,641.34 239.13,639.43 240.00,639.00 C 240.87,638.57 244.27,637.73 245.00,638.00 C 245.73,638.27 247.68,641.15 248.00,642.00 C 248.32,642.85 248.63,645.37 248.00,646.00 C 247.37,646.63 241.89,649.00 241.00,649.00 C 240.11,649.00 238.44,646.77 238.00,646.00 C 237.56,645.23 236.81,642.66 237.00,642.00 Z M 193.00,641.00 C 193.63,640.37 199.11,638.00 200.00,638.00 C 200.89,638.00 202.56,640.23 203.00,641.00 C 203.44,641.77 204.19,644.34 204.00,645.00 C 203.81,645.66 201.77,647.56 201.00,648.00 C 200.23,648.44 197.76,649.28 197.00,649.00 C 196.24,648.72 193.41,645.82 193.00,645.00 C 192.59,644.18 192.37,641.63 193.00,641.00 Z" fill="#ffdc00" fill-rule="evenodd" stroke-linejoin="round" stroke-linecap="round" shape-rendering="geometricPrecision" />
</svg>